<svg width="343.000000" height="36.000000" viewBox="0 0 343 36" fill="none" xmlns="http://www.w3.org/2000/svg" xmlns:xlink="http://www.w3.org/1999/xlink">
	<desc>
			Created with Pixso.
	</desc>
	<defs>
		<clipPath id="clip9_647">
			<rect id="Name=icon-menu, Size=24, Theme Mode=Light" width="24.000000" height="24.000000" transform="translate(313.000000 6.000000)" fill="white" fill-opacity="0"/>
		</clipPath>
	</defs>
	<path id="&lt;SS /&gt;" d="M2.83274 20.1011L17.8327 26.7075L17.8327 22.3936L7.70335 18.3286L7.70335 18.1309L17.8327 14.0659L17.8327 9.75195L2.83274 16.3511L2.83274 20.1011ZM33.661 13.458L38.0848 13.458C38.0189 9.56885 34.8182 6.88086 29.9622 6.88086C25.1795 6.88086 21.6785 9.5249 21.6932 13.4873C21.6859 16.7026 23.9564 18.5483 27.6405 19.4346L30.0135 20.0278C32.3939 20.6064 33.7122 21.2876 33.7269 22.7598C33.7122 24.3564 32.2034 25.4404 29.8597 25.4404C27.4573 25.4404 25.7362 24.3345 25.5823 22.1519L21.1219 22.1519C21.2391 26.8687 24.6156 29.3076 29.911 29.3076C35.2357 29.3076 38.3704 26.7661 38.3778 22.7671C38.3704 19.1343 35.6312 17.208 31.8372 16.3511L29.8817 15.8823C27.9847 15.4502 26.3953 14.7471 26.4246 13.1797C26.4246 11.7734 27.6698 10.7407 29.9329 10.7407C32.1375 10.7407 33.4925 11.7441 33.661 13.458ZM52.7058 13.458L57.1297 13.458C57.0638 9.56885 53.8631 6.88086 49.0071 6.88086C44.2244 6.88086 40.7234 9.5249 40.7381 13.4873C40.7308 16.7026 43.0013 18.5483 46.6853 19.4346L49.0584 20.0278C51.4388 20.6064 52.7571 21.2876 52.7718 22.7598C52.7571 24.3564 51.2483 25.4404 48.9046 25.4404C46.5022 25.4404 44.781 24.3345 44.6272 22.1519L40.1668 22.1519C40.284 26.8687 43.6604 29.3076 48.9558 29.3076C54.2806 29.3076 57.4153 26.7661 57.4226 22.7671C57.4153 19.1343 54.6761 17.208 50.8821 16.3511L48.9266 15.8823C47.0296 15.4502 45.4402 14.7471 45.4695 13.1797C45.4695 11.7734 46.7146 10.7407 48.9778 10.7407C51.1824 10.7407 52.5374 11.7441 52.7058 13.458ZM75.6904 6.15576L71.7793 6.15576L64.748 32.2812L68.6592 32.2812L75.6904 6.15576ZM93.1673 22.1519L93.1673 18.4019L78.1673 11.7954L78.1673 16.1094L88.2967 20.1816L88.2967 20.3721L78.1673 24.437L78.1673 28.7583L93.1673 22.1519Z" fill="#111827" fill-opacity="1.000000" fill-rule="evenodd"/>
	<rect id="Name=icon-menu, Size=24, Theme Mode=Light" width="24.000000" height="24.000000" transform="translate(313.000000 6.000000)" fill="#FFFFFF" fill-opacity="0"/>
	<g clip-path="url(#clip9_647)">
		<path id="Vector" d="M317 18L333 18" stroke="#4B5563" stroke-opacity="1.000000" stroke-width="2.000000" stroke-linejoin="round" stroke-linecap="round"/>
		<path id="Vector" d="M317 12L333 12" stroke="#4B5563" stroke-opacity="1.000000" stroke-width="2.000000" stroke-linejoin="round" stroke-linecap="round"/>
		<path id="Vector" d="M317 24L333 24" stroke="#4B5563" stroke-opacity="1.000000" stroke-width="2.000000" stroke-linejoin="round" stroke-linecap="round"/>
	</g>
</svg>
